<svg width="20" height="20" viewBox="0 0 20 20" fill="none" xmlns="http://www.w3.org/2000/svg">
<g clip-path="url(#clip0_3277_1343)">
<path fill-rule="evenodd" clip-rule="evenodd" d="M10.0083 0.5C4.47396 0.5 0 4.85415 0 10.2408C0 14.5467 2.86662 18.1915 6.84338 19.4815C7.34058 19.5785 7.5227 19.2719 7.5227 19.014C7.5227 18.7882 7.50631 18.0142 7.50631 17.2077C4.72225 17.7883 4.14249 16.0465 4.14249 16.0465C3.69508 14.9176 3.03215 14.6274 3.03215 14.6274C2.12092 14.0307 3.09852 14.0307 3.09852 14.0307C4.1093 14.0952 4.63969 15.0306 4.63969 15.0306C5.53432 16.5142 6.97592 16.095 7.55588 15.8369C7.63865 15.2079 7.90394 14.7725 8.18563 14.5307C5.96514 14.3048 3.62891 13.4663 3.62891 9.72466C3.62891 8.66027 4.02634 7.78944 4.65608 7.11217C4.55672 6.87032 4.20866 5.87025 4.75564 4.53174C4.75564 4.53174 5.60069 4.27366 7.5061 5.53161C8.32188 5.31839 9.16317 5.20993 10.0083 5.20901C10.8533 5.20901 11.7148 5.32202 12.5102 5.53161C14.4159 4.27366 15.2609 4.53174 15.2609 4.53174C15.8079 5.87025 15.4596 6.87032 15.3603 7.11217C16.0066 7.78944 16.3876 8.66027 16.3876 9.72466C16.3876 13.4663 14.0514 14.2886 11.8143 14.5307C12.179 14.837 12.4936 15.4175 12.4936 16.3368C12.4936 17.6431 12.4773 18.6914 12.4773 19.0138C12.4773 19.2719 12.6596 19.5785 13.1566 19.4817C17.1333 18.1913 20 14.5467 20 10.2408C20.0163 4.85415 15.526 0.5 10.0083 0.5Z" fill="#24292F"/>
</g>
<defs>
<clipPath id="clip0_3277_1343">
<rect width="20" height="20" fill="white"/>
</clipPath>
</defs>
</svg>
