<svg width="21" height="18" viewBox="0 0 21 18" fill="none" xmlns="http://www.w3.org/2000/svg">
  <g clip-path="url(#clip0_2265_132)">
    <path fill-rule="evenodd" clip-rule="evenodd" d="M20.158 14.7036L16.3754 12.1411C16.294 12.0801 16.1924 12.0598 16.111 12.0598H9.80657C9.6032 12.0598 9.5015 12.2835 9.62352 12.4462L11.4539 14.7646C10.4167 15.1103 9.27779 15.212 8.19994 15.0087C6.67467 14.6832 5.3121 13.8088 4.39693 12.6089C3.01403 10.7786 2.74965 8.29745 3.64448 6.28412C4.64099 3.96569 6.97973 2.50144 9.39983 2.50144C9.52185 2.50144 9.68452 2.50144 9.82688 2.50144C12.3893 2.68447 14.6264 4.51479 15.3992 6.87388C15.8263 8.23645 15.7653 9.72106 15.2772 11.0633H16.4567C16.5584 11.0633 16.6601 11.0836 16.7211 11.1446L17.7176 11.8361C18.2464 10.3515 18.3684 8.74488 18.0837 7.19926C17.7379 5.40961 16.7821 3.70131 15.4602 2.42009C13.8536 0.894825 11.6369 0 9.39983 0C9.33879 0 9.23713 0 9.17612 0C6.45098 0.0610107 3.88852 1.42358 2.2819 3.55895C0.898991 5.40961 0.309221 7.80936 0.614274 10.0871C0.960001 12.5886 2.4446 14.8866 4.53929 16.2899C6.0239 17.2457 7.81355 17.7541 9.56251 17.7134H16.0907C16.1924 17.7134 16.2737 17.6931 16.355 17.6321L20.1377 15.09C20.3004 15.0087 20.3004 14.8053 20.158 14.7036Z" fill="#005BAC"/>
  </g>
  <defs>
    <clipPath id="clip0_2265_132">
      <rect width="19.9286" height="18" fill="white" transform="translate(0.535767)"/>
    </clipPath>
  </defs>
</svg>
