<svg width="72" height="64" viewBox="0 0 72 64" fill="none" xmlns="http://www.w3.org/2000/svg"><path fill-rule="evenodd" clip-rule="evenodd" d="M71.3447 53.1184L57.5913 43.8612C57.2955 43.6408 56.9258 43.5673 56.6301 43.5673H33.7077C32.9683 43.5673 32.5986 44.3755 33.0422 44.9633L39.6971 53.3388C35.926 54.5877 31.7852 54.9551 27.8662 54.2204C22.3205 53.0449 17.3663 49.8857 14.0389 45.551C9.01073 38.9388 8.04947 29.9755 11.303 22.702C14.9262 14.3265 23.4296 9.03673 32.2288 9.03673C32.6725 9.03673 33.264 9.03673 33.7816 9.03673C43.0985 9.69796 51.2322 16.3102 54.042 24.8326C55.5948 29.7551 55.373 35.1184 53.5984 39.9673H57.8871C58.2568 39.9673 58.6265 40.0408 58.8483 40.2612L62.4716 42.7592C64.3941 37.3959 64.8377 31.5918 63.8025 26.0082C62.5455 19.5429 59.0702 13.3714 54.2639 8.74285C48.4224 3.23265 40.3626 0 32.2288 0C32.007 0 31.6373 0 31.4155 0C21.5071 0.220408 12.1903 5.14286 6.34878 12.8571C1.32065 19.5429 -0.823699 28.2122 0.285447 36.4408C1.54248 45.4775 6.94032 53.7796 14.5565 58.849C19.9543 62.302 26.4613 64.1388 32.8204 63.9918H56.5561C56.9258 63.9918 57.2216 63.9183 57.5174 63.6979L71.2708 54.5143C71.8623 54.2204 71.8623 53.4857 71.3447 53.1184Z" fill="#005BAC"/></svg>