<svg width="20" height="20" viewBox="0 0 20 20" fill="none" xmlns="http://www.w3.org/2000/svg">
<path fill-rule="evenodd" clip-rule="evenodd" d="M19.6223 15.7036L15.8396 13.1411C15.7583 13.0801 15.6566 13.0598 15.5752 13.0598H9.2708C9.06744 13.0598 8.96574 13.2835 9.08775 13.4462L10.9181 15.7646C9.88091 16.1103 8.74202 16.212 7.66417 16.0087C6.1389 15.6832 4.77633 14.8088 3.86116 13.6089C2.47826 11.7786 2.21388 9.29745 3.10871 7.28412C4.10522 4.96569 6.44397 3.50144 8.86407 3.50144C8.98608 3.50144 9.14876 3.50144 9.29112 3.50144C11.8536 3.68447 14.0907 5.51479 14.8634 7.87388C15.2905 9.23645 15.2295 10.7211 14.7414 12.0633H15.921C16.0226 12.0633 16.1243 12.0836 16.1853 12.1446L17.1819 12.8361C17.7106 11.3515 17.8326 9.74488 17.5479 8.19926C17.2022 6.40961 16.2463 4.70131 14.9244 3.42009C13.3178 1.89482 11.1011 1 8.86407 1C8.80303 1 8.70136 1 8.64035 1C5.91522 1.06101 3.35276 2.42358 1.74613 4.55895C0.363224 6.40961 -0.226546 8.80936 0.0785078 11.0871C0.424234 13.5886 1.90883 15.8866 4.00352 17.2899C5.48814 18.2457 7.27779 18.7541 9.02674 18.7134H15.5549C15.6566 18.7134 15.7379 18.6931 15.8193 18.6321L19.6019 16.09C19.7646 16.0087 19.7646 15.8053 19.6223 15.7036Z" fill="#005BAC"/>
</svg>
