<svg width="258" height="258" viewBox="0 0 258 258" fill="none" xmlns="http://www.w3.org/2000/svg">
<path d="M146.808 254.831C135.068 256.48 123.148 256.481 111.409 254.831L121.424 183.691C126.529 184.405 131.712 184.405 136.819 183.691L146.808 254.831Z" fill="#AC004B"/>
<path d="M95.0318 172.506C99.1734 175.749 103.668 178.33 108.373 180.228L81.4641 246.794C70.4738 242.352 60.1551 236.391 50.814 229.094L95.0318 172.506Z" fill="#AC004B"/>
<path d="M202.665 128.803C202.664 138.3 200.816 147.672 197.274 156.417L247.035 176.523C242.593 187.516 236.636 197.843 229.335 207.185L187.02 174.117C183.326 178.834 179.07 183.079 174.346 186.764L207.415 229.093C198.072 236.39 187.745 242.35 176.753 246.793L149.857 180.226C152.244 179.264 154.574 178.108 156.836 176.8L156.811 176.761C165.228 171.901 172.221 164.91 177.08 156.493C181.94 148.077 184.5 138.521 184.5 128.803H202.665Z" fill="#AC004B"/>
<path d="M77.7604 149.627C79.6612 154.332 82.2497 158.829 85.4953 162.968L28.894 207.185C21.5936 197.845 15.6364 187.517 11.1943 176.523L77.7604 149.627Z" fill="#AC004B"/>
<path fill-rule="evenodd" clip-rule="evenodd" d="M101.305 101.467C116.662 86.1133 141.567 86.1119 156.923 101.467C172.28 116.822 172.278 141.716 156.923 157.073C141.566 172.429 116.662 172.429 101.305 157.073C85.9553 141.718 85.9545 116.822 101.305 101.467ZM144.075 114.316C135.814 106.056 122.417 106.056 114.155 114.316L113.777 114.707C105.899 122.994 106.023 136.104 114.155 144.236C122.288 152.367 135.409 152.491 143.697 144.614L144.075 144.236C152.337 135.976 152.336 122.578 144.075 114.316Z" fill="#AC004B"/>
<path fill-rule="evenodd" clip-rule="evenodd" d="M176.753 10.9648C187.747 15.4063 198.072 21.3656 207.415 28.6645L195.863 43.4541C199.317 46.1546 202.607 49.0779 205.728 52.197C208.87 55.3397 211.802 58.6671 214.521 62.1491L229.335 50.5718C236.635 59.914 242.592 70.2428 247.035 81.2346L229.599 88.2766C231.236 92.3366 232.631 96.5064 233.77 100.761C238.693 119.13 238.693 138.477 233.77 156.846L216.234 152.146C220.331 136.857 220.331 120.75 216.234 105.46C215.285 101.922 214.105 98.456 212.744 95.0794L180.494 108.131C178.595 103.423 176.015 98.9217 172.772 94.7771L172.784 94.7519C171.388 92.9624 169.896 91.2452 168.287 89.6372C166.703 88.0523 165.01 86.5816 163.248 85.2028L163.235 85.2281C159.093 81.981 154.588 79.3938 149.881 77.4931L162.908 45.2053C159.511 43.8324 156.025 42.6576 152.464 41.7031C137.175 37.6063 121.068 37.6063 105.777 41.7031L101.066 24.1546C119.435 19.2328 138.781 19.2341 157.15 24.1546C161.433 25.3019 165.637 26.6987 169.723 28.3497L176.753 10.9648ZM174.422 70.8919C176.769 72.7271 179.015 74.6898 181.124 76.8003C183.257 78.9333 185.243 81.2044 187.095 83.5778L200.209 73.3232C197.947 70.4239 195.507 67.6507 192.89 65.034C190.293 62.4379 187.539 60.013 184.663 57.7651L174.422 70.8919Z" fill="#AC004B"/>
<path d="M74.2582 121.17C73.5467 126.281 73.5538 131.48 74.2707 136.589L3.1696 146.579C1.51981 134.838 1.51947 122.921 3.1696 111.18L74.2582 121.17Z" fill="#AC004B"/>
<path d="M101.545 60.6248C110.274 57.0946 119.628 55.2594 129.108 55.2582V73.4241C121.963 73.4251 114.914 74.817 108.335 77.4805L108.347 77.4931C103.64 79.3939 99.1493 81.9809 95.0065 85.2281L94.9813 85.2028C91.423 87.9883 88.2233 91.2004 85.4449 94.7644L85.4575 94.777C82.2138 98.9219 79.6448 103.422 77.7477 108.131L11.1943 81.2346C15.6356 70.2447 21.5963 59.9251 28.894 50.5845L71.134 83.5778C74.8248 78.8462 79.0812 74.5895 83.8072 70.8919L50.8139 28.6645C60.1555 21.367 70.4732 15.4059 81.4641 10.9648L101.545 60.6248Z" fill="#AC004B"/>
</svg>
