<svg width="258" height="258" viewBox="0 0 258 258" fill="none" xmlns="http://www.w3.org/2000/svg">
<g clip-path="url(#clip0_605_117)">
<rect x="1" y="1" width="256" height="256" fill="white"/>
<path d="M60.0457 217.256C68.2744 223.685 77.3618 228.932 87.0438 232.843L129 128.999L60.0457 217.256Z" fill="#AC004B"/>
<path d="M113.412 239.91C123.752 241.363 134.246 241.363 144.586 239.91L128.999 129L113.412 239.91Z" fill="#AC004B"/>
<path d="M170.953 232.844C180.635 228.933 189.722 223.686 197.951 217.257L128.997 129L170.953 232.844Z" fill="#AC004B"/>
<path d="M217.253 197.954C223.682 189.726 228.929 180.638 232.84 170.956L128.996 129L217.253 197.954Z" fill="#AC004B"/>
<path d="M232.843 87.0444C228.932 77.3623 223.685 68.2749 217.256 60.0462L128.999 129L232.843 87.0444Z" fill="#AC004B"/>
<path d="M40.7441 197.954C34.3151 189.726 29.0685 180.638 25.1567 170.956L129.001 129L40.7441 197.954Z" fill="#AC004B"/>
<path d="M18.09 144.588C16.6367 134.248 16.6367 123.754 18.09 113.414L129 129.001L18.09 144.588Z" fill="#AC004B"/>
<path d="M25.1557 87.0473C29.0675 77.3652 34.3141 68.2778 40.7431 60.0491L129 129.003L25.1557 87.0473Z" fill="#AC004B"/>
<path d="M60.0457 40.747C68.2744 34.318 77.3618 29.0714 87.0438 25.1596L129 129.004L60.0457 40.747Z" fill="#AC004B"/>
<path d="M170.956 25.1567C180.638 29.0685 189.725 34.3151 197.954 40.7441L129 129.001L170.956 25.1567Z" fill="#AC004B"/>
<circle cx="129" cy="128.974" r="48.7723" transform="rotate(45 129 128.974)" fill="white"/>
<circle cx="129" cy="129.346" r="26.6296" transform="rotate(45 129 129.346)" stroke="#AC004B" stroke-width="16"/>
<path d="M185.772 128.933C185.772 138.898 183.149 148.688 178.166 157.319C173.184 165.949 166.017 173.116 157.386 178.099" stroke="#AC004B" stroke-width="16"/>
<path d="M169.144 88.7885C172.652 92.2968 175.686 96.2498 178.166 100.546" stroke="#AC004B" stroke-width="16"/>
<path d="M190.813 67.1202C201.663 77.9705 209.466 91.4858 213.438 106.308C217.409 121.13 217.409 136.736 213.438 151.558" stroke="#AC004B" stroke-width="16"/>
<path d="M129 72.1602C119.034 72.1602 109.244 74.7834 100.614 79.7662C91.9834 84.749 84.8165 91.9158 79.8337 100.546" stroke="#AC004B" stroke-width="16"/>
<path d="M169.144 88.7884C165.636 85.2801 161.683 82.2469 157.386 79.7662" stroke="#AC004B" stroke-width="16"/>
<path d="M190.812 67.1198C179.962 56.2695 166.447 48.4664 151.625 44.4949C136.803 40.5234 121.197 40.5234 106.375 44.4949" stroke="#AC004B" stroke-width="16"/>
</g>
<rect x="0.5" y="0.5" width="257" height="257" stroke="black"/>
<defs>
<clipPath id="clip0_605_117">
<rect x="1" y="1" width="256" height="256" fill="white"/>
</clipPath>
</defs>
</svg>
